<svg id="Слой_1" data-name="Слой 1" xmlns="http://www.w3.org/2000/svg" viewBox="0 0 237.18 196.89"><defs><style>.cls-1{fill:#0475d9;}</style></defs><title>4</title><path class="cls-1" d="M216.1,30.73H197.77a22.66,22.66,0,0,0-10.69-10.68V1.71h-6.45V18.09a23.16,23.16,0,0,0-3.22-.25H171V1.71h-6.45V17.84h-9.67V1.71h-6.45V17.84h-9.68V1.71h-6.44V17.84h-9.68V1.71h-6.45V17.84h-9.67V1.71H100V17.84H90.35V1.71H83.9V17.84H74.23V1.71H67.78V17.84H61.33a23.3,23.3,0,0,0-3.23.25V1.71H51.65V20.05A22.6,22.6,0,0,0,41,30.73H22.63v6.45H39a23.3,23.3,0,0,0-.25,3.23v6.45H22.63v6.45H38.76V63H22.63v6.45H38.76V79.1H22.63v6.45H38.76v9.67H22.63v6.45H38.76v9.68H22.63v6.44H38.76v9.68H22.63v6.45H38.76v9.67H22.63V150H38.76v6.45a23.16,23.16,0,0,0,.25,3.22H22.63v6.45H41a22.66,22.66,0,0,0,10.68,10.69v18.33H58.1V178.8a23.31,23.31,0,0,0,3.23.26h6.45v16.12h6.45V179.06H83.9v16.12h6.45V179.06H100v16.12h6.45V179.06h9.67v16.12h6.45V179.06h9.68v16.12h6.44V179.06h9.68v16.12h6.45V179.06h9.67v16.12H171V179.06h6.45a23.17,23.17,0,0,0,3.22-.26v16.38h6.45V176.85a22.72,22.72,0,0,0,10.69-10.69H216.1v-6.45H199.72a23.17,23.17,0,0,0,.26-3.22V150H216.1v-6.45H200v-9.67H216.1v-6.45H200v-9.68H216.1v-6.44H200v-9.68H216.1V95.22H200V85.55H216.1V79.1H200V69.43H216.1V63H200V53.31H216.1V46.86H200V40.41a23.31,23.31,0,0,0-.26-3.23H216.1ZM193.53,156.49a16.14,16.14,0,0,1-16.12,16.12H61.33a16.14,16.14,0,0,1-16.12-16.12V40.41A16.14,16.14,0,0,1,61.33,24.29H177.41a16.14,16.14,0,0,1,16.12,16.12Z"/><path class="cls-1" d="M174.18,34H64.55a9.67,9.67,0,0,0-9.67,9.67V153.26a9.68,9.68,0,0,0,9.67,9.68H174.18a9.69,9.69,0,0,0,9.68-9.68V43.63A9.68,9.68,0,0,0,174.18,34Zm3.23,119.3a3.23,3.23,0,0,1-3.23,3.23H64.55a3.23,3.23,0,0,1-3.22-3.23V43.63a3.22,3.22,0,0,1,3.22-3.22H174.18a3.23,3.23,0,0,1,3.23,3.22Z"/></svg>