<svg id="Слой_1" data-name="Слой 1" xmlns="http://www.w3.org/2000/svg" viewBox="0 0 237.18 196.89"><defs><style>.cls-1{fill:#0475d9;}.cls-2{fill:none;stroke:#0475d9;stroke-linecap:round;stroke-miterlimit:10;stroke-width:7px;}</style></defs><title>3</title><path class="cls-1" d="M225.72,32.73H199V28.91a11.47,11.47,0,0,0-11.46-11.46H114.94a11.47,11.47,0,0,0-11.46,11.46V44.19h-1.77L95.2,34.43A3.83,3.83,0,0,0,92,32.73H11.8A11.47,11.47,0,0,0,.34,44.19v99.32A11.47,11.47,0,0,0,11.8,155H38.54v19.1a3.82,3.82,0,0,0,3.82,3.82H164.6a3.81,3.81,0,0,0,3.82-3.82V155h57.3a11.47,11.47,0,0,0,11.46-11.46V44.19A11.47,11.47,0,0,0,225.72,32.73Zm-114.6-3.82a3.82,3.82,0,0,1,3.82-3.82h72.58a3.82,3.82,0,0,1,3.82,3.82v3.82H145.5a3.84,3.84,0,0,0-3.18,1.7l-6.5,9.76h-24.7Zm49.66,141.34H46.18V155h7.64v7.64h7.64V155H69.1v7.64h7.64V155h7.64v7.64H92V155h7.64v7.64h7.64V155h7.64v7.64h7.64V155h7.64v7.64h7.64V155h7.64v7.64h7.64V155h7.64Zm68.76-26.74a3.83,3.83,0,0,1-3.82,3.82H11.8A3.83,3.83,0,0,1,8,143.51V44.19a3.82,3.82,0,0,1,3.82-3.82H90l6.5,9.76a3.84,3.84,0,0,0,3.18,1.7h38.2a3.83,3.83,0,0,0,3.18-1.7l6.51-9.76h78.17a3.82,3.82,0,0,1,3.82,3.82Z"/><path class="cls-2" d="M26.9,95.48s13.09,11.92,34-.91,33.58.91,33.58.91"/><path class="cls-2" d="M60,61s-11.92,13.09.92,34S60,128.61,60,128.61"/><circle class="cls-2" cx="60.7" cy="94.81" r="33.8"/><path class="cls-2" d="M143.25,95.48s13.09,11.92,34-.91,33.58.91,33.58.91"/><path class="cls-2" d="M176.38,61s-11.92,13.09.91,34-.91,33.58-.91,33.58"/><circle class="cls-2" cx="177.06" cy="94.81" r="33.8"/></svg>