<svg id="Слой_1" data-name="Слой 1" xmlns="http://www.w3.org/2000/svg" viewBox="0 0 237.18 196.89"><defs><style>.cls-1{fill:#0475d9;}</style></defs><title>12</title><path class="cls-1" d="M223.14,10.55H13.42A11.33,11.33,0,0,0,2.09,21.88V97.41a4.9,4.9,0,1,0,9.79,0V28A7.07,7.07,0,0,1,19,20.93H217.6A7.07,7.07,0,0,1,224.67,28V166.2a7.07,7.07,0,0,1-7.07,7.07H119.45a5.19,5.19,0,0,0,0,10.38H223.14a11.34,11.34,0,0,0,11.33-11.34V21.88A11.33,11.33,0,0,0,223.14,10.55Z"/><path class="cls-1" d="M93.33,114.66H10.46A8.38,8.38,0,0,0,2.08,123v52.19a8.38,8.38,0,0,0,8.38,8.38H93.33a8.38,8.38,0,0,0,8.38-8.38V123A8.38,8.38,0,0,0,93.33,114.66Zm-.16,54.63a4.88,4.88,0,0,1-4.91,4.84H15.53a4.88,4.88,0,0,1-4.91-4.84V129a4.88,4.88,0,0,1,4.91-4.84H88.26A4.88,4.88,0,0,1,93.17,129Z"/><path class="cls-1" d="M141.71,100.92a4.76,4.76,0,0,0,6.72,0l43.84-43.86V88a4.76,4.76,0,1,0,9.51,0V45.66A4.76,4.76,0,0,0,197,40.9H154.69a4.76,4.76,0,0,0,0,9.51h30.89L141.71,94.23A4.71,4.71,0,0,0,141.71,100.92Z"/></svg>