<svg id="Слой_1" data-name="Слой 1" xmlns="http://www.w3.org/2000/svg" viewBox="0 0 237.18 196.89"><defs><style>.cls-1{fill:#0475d9;}</style></defs><title>11</title><path class="cls-1" d="M176.79,13.59,72.34,41.87a8.19,8.19,0,0,0-4.85,3.61L4,148.45a8.2,8.2,0,0,0,3.71,11.84L95,188.07a8.24,8.24,0,0,0,10.63-3.82l80.66-159A8.22,8.22,0,0,0,176.79,13.59Zm-3.47,18.23L100.61,174.46a7.22,7.22,0,0,1-9.35,3.38l-73.9-23.68c-3-1.08-4.78-3.62-3.22-6.65l58.65-95.1a7.2,7.2,0,0,1,4.27-3.2l94.82-24.86C176.48,22.92,176.16,26.2,173.32,31.82Z"/><path class="cls-1" d="M233.66,142.88,187.29,19.67a4.26,4.26,0,0,0-7.65-.1L121.48,139.06l101.21,18A10,10,0,0,0,233.66,142.88Zm-16.12,5.62-85.21-15.4L176.42,32.54a3.59,3.59,0,0,1,6.43.09L224,140.1C227,146.32,224.34,149.82,217.54,148.5Z"/><polygon class="cls-1" points="53.85 78.33 57.61 69.39 166.85 55.15 161.5 67.17 53.85 78.33"/></svg>