<svg width="198" height="36" viewBox="0 0 198 36" fill="none" xmlns="http://www.w3.org/2000/svg">
<path d="M16.1507 3.3423C22.5063 2.3678 28.8778 1.45668 35.2493 0.569336C35.2572 6.15488 35.2493 11.7325 35.2572 17.3101C28.8937 17.3339 22.5222 17.429 16.1507 17.4527C16.1427 12.7466 16.1427 8.04841 16.1507 3.3423ZM0 5.59236C4.78655 4.85555 9.59688 4.2138 14.4072 3.61167C14.4151 8.23856 14.4151 12.8654 14.4151 17.5003C9.61273 17.4923 4.8024 17.5716 0 17.5557V5.59236ZM76.0776 6.37671C77.3377 5.57652 78.9464 7.24822 78.2173 8.50793C77.8607 9.4349 76.5611 9.7835 75.8241 9.10214C74.8969 8.47624 75.0316 6.81246 76.0776 6.37671ZM109.068 6.21034C109.877 6.20241 110.685 6.20241 111.493 6.20241V28.806H109.076C109.084 27.99 109.06 27.166 109.005 26.35C107.254 29.4874 102.578 30.1846 99.9074 27.8553C97.9975 26.2153 97.419 23.5374 97.5141 21.121C97.5379 18.6649 98.3383 16.0583 100.296 14.4579C102.832 12.3663 107.341 12.4852 109.076 15.5592C109.053 12.4376 109.076 9.32398 109.068 6.21034ZM103.846 15.1472C101.904 15.4562 100.597 17.223 100.232 19.0531C99.7568 21.2556 99.844 23.8068 101.231 25.6845C102.737 27.681 106.049 27.7206 107.658 25.835C108.751 24.6941 109.06 23.062 109.068 21.5409C109.076 19.9325 109.219 18.1103 108.149 16.7714C107.206 15.4166 105.439 14.8144 103.846 15.1472ZM180.613 7.07392C180.827 7.04222 181.255 6.98676 181.461 6.95507C181.477 14.2361 181.469 21.525 181.469 28.806H179.076C179.092 22.7451 179.036 16.6763 179.107 10.6154C177.586 11.6691 175.945 12.5723 174.154 13.0714C174.162 12.2633 174.178 11.4552 174.186 10.6471C176.524 9.8548 178.656 8.57132 180.613 7.07392ZM190.297 7.06599C192.397 6.71739 194.727 7.47798 195.971 9.26852C197.746 11.7721 197.913 14.9808 198 17.936C197.937 21.0576 197.596 24.4485 195.599 26.9917C193.76 29.4002 189.996 29.9627 187.539 28.196C185.542 26.754 184.758 24.2425 184.401 21.9132C183.997 18.451 184.037 14.8224 185.233 11.5265C186.002 9.27644 187.872 7.35121 190.297 7.06599ZM189.933 9.2289C187.777 10.1004 187.167 12.6436 186.866 14.7114C186.549 17.5953 186.477 20.5664 187.167 23.4027C187.508 24.7971 188.237 26.2787 189.616 26.8966C191.185 27.6889 193.285 27.0076 194.117 25.4547C195.44 23.1729 195.472 20.4396 195.488 17.8726C195.432 15.377 195.337 12.6832 193.95 10.5124C193.126 9.18929 191.359 8.65847 189.933 9.2289ZM46.0111 7.41459C46.9225 7.42252 47.8259 7.42252 48.7372 7.43044C50.1558 12.5485 51.5505 17.6746 52.9691 22.8006C53.2781 23.8781 53.5 24.9793 53.6347 26.0885C55.1087 19.8058 57.1296 13.6498 58.8255 7.42252C59.61 7.43044 60.4025 7.43044 61.187 7.43044C62.4312 11.8672 63.6041 16.3198 64.8403 20.7644C65.3 22.5312 65.8864 24.2742 66.0687 26.1044C67.408 19.8295 69.3099 13.6736 70.8235 7.43836C71.719 7.42252 72.6145 7.42252 73.51 7.42252C71.5526 14.5609 69.5239 21.6835 67.5427 28.8139H64.6343C63.1999 23.6959 61.7814 18.5619 60.3312 13.4517C60.0855 12.6278 59.9904 11.7721 59.9111 10.9165C59.8002 11.6533 59.6893 12.398 59.4991 13.1269C58.033 18.3401 56.551 23.5453 55.1246 28.7743C54.1578 28.8298 53.183 28.8298 52.2162 28.8219C50.1399 21.6835 48.0795 14.5451 46.0111 7.41459ZM84.4066 15.9395C85.7934 13.4755 89.0188 12.3425 91.626 13.4834C93.6944 14.2915 94.471 16.6842 94.5344 18.7283C94.6453 22.0875 94.5582 25.4468 94.5819 28.806C93.7736 28.806 92.9653 28.806 92.157 28.7981C92.1174 25.5735 92.2441 22.3411 92.1015 19.1165C92.0381 17.5161 91.3566 15.5988 89.6211 15.1868C87.0851 14.4183 84.5492 16.708 84.462 19.2195C84.3907 22.4124 84.4541 25.6132 84.4303 28.806H82.0054C82.0133 23.6879 82.0133 18.5778 82.0054 13.4676H84.4303C84.4383 14.2915 84.4303 15.1155 84.4066 15.9395ZM120.908 13.0873C123.071 12.8971 125.465 13.2378 127.089 14.7986C128.92 16.4861 129.467 19.1165 129.364 21.5171C129.332 23.68 128.54 25.8667 126.955 27.372C123.65 30.3747 117.516 29.7171 115.424 25.5894C113.776 22.1271 114.109 17.3418 117.112 14.7114C118.198 13.8083 119.561 13.3963 120.908 13.0873ZM120.472 15.2898C116.914 16.3831 116.312 21.0259 117.421 24.0841C118.309 26.7936 121.756 27.9979 124.228 26.7303C125.901 25.9618 126.669 24.0682 126.828 22.3411C127.01 20.3208 126.852 18.0232 125.417 16.4465C124.213 15.0838 122.16 14.7828 120.472 15.2898ZM157.647 13.0794C159.161 12.9764 160.706 13.119 162.133 13.6736C162.529 14.4262 162.22 15.4087 162.315 16.2564C160.619 15.1947 158.273 14.5134 156.427 15.5988C155.167 16.2881 155.103 18.3163 156.332 19.069C158.099 20.2098 160.334 20.5109 161.903 21.9766C163.63 23.6404 163.21 26.8333 161.19 28.0851C158.733 29.6538 155.492 29.4953 152.916 28.3069C152.916 27.4037 152.908 26.5005 152.892 25.5973C154.723 26.9917 157.298 27.7681 159.494 26.7778C160.777 26.1361 160.841 24.1712 159.716 23.3393C157.948 22.04 155.531 21.834 153.962 20.2098C152.417 18.6491 152.694 15.7889 154.422 14.4658C155.317 13.6498 156.522 13.4042 157.647 13.0794ZM75.5546 13.4755C76.3629 13.4676 77.1713 13.4676 77.9796 13.4676V28.806H75.5546C75.5546 23.6958 75.5546 18.5857 75.5546 13.4755ZM130.378 13.4676H132.906C133.905 17.12 134.879 20.7803 135.902 24.4327C136.108 25.1219 136.187 25.8271 136.258 26.5401C137.399 22.143 138.85 17.8251 140.141 13.4676L142.352 13.4834C143.462 17.8409 144.841 22.1351 145.76 26.5401C146.711 22.1588 148.058 17.8806 149.112 13.523C149.921 13.4834 150.737 13.4676 151.553 13.4597C150.016 18.5778 148.542 23.7038 146.996 28.8139H144.484C143.391 24.6545 141.98 20.5822 141.1 16.3752C140.046 20.5743 138.588 24.6545 137.384 28.8139H134.959C133.421 23.6959 131.876 18.5936 130.378 13.4676ZM0 19.0135C4.8024 18.9977 9.6048 19.0769 14.3993 19.069C14.3993 23.7117 14.4151 28.3544 14.4072 32.9972C9.61273 32.2841 4.8024 31.6661 0 31.0165V19.0135H0ZM16.119 19.2036H35.2493C35.2572 24.7733 35.2493 30.3351 35.2493 35.9048C28.8937 34.9541 22.5222 34.0667 16.1507 33.2032C16.1427 28.5366 16.1269 23.8701 16.119 19.2036Z" fill="white"/>
</svg>
