<svg class="svg-icon-store" xmlns="http://www.w3.org/2000/svg">
<symbol id="i-hand" viewBox="0 0 37 51">  <path d="M10.6,31.1"/> <path class="st0" d="M32.1,24.1c-0.9,0-1.7,0.3-2.4,0.8c-0.8-2.3-3.8-3.4-5.8-2c-0.6-2.5-3.6-4-5.8-2.5v-1.6C28.9,13,21-3.5,9.7,1.8
	C2.9,5,2.8,15.5,9.6,18.8V27c-1.7-2.8-4.1-5.2-7.4-2.9C0.5,25.6,0.4,28,1.7,30L9,44.7c4,6.6,6.9,5.2,11.6,5.5c2.9,0,5.1-0.1,7.5-0.2
	c5.7,0.2,8-6.1,8.1-10.3V28.5C36.2,26.1,34.4,24.2,32.1,24.1z M29.6,25c0,0.1,0,0.1,0.1,0.2C29.6,25.1,29.6,25,29.6,25L29.6,25z
	 M9.6,16.6c-5.9-4-3-14,4.3-13.9c7.4-0.2,10.3,10.1,4.1,14.1c0-3.4,0.7-7.9-4.1-8.2c-4.7,0.3-4.1,4.8-4.1,8.2
	C9.7,16.7,9.6,16.6,9.6,16.6z M33.2,44c-0.9,2.3-2.6,4-5.3,3.9C27,48,21.7,48.2,16.8,48c-1.1-0.1-4-0.6-5.9-4.3L3.5,29
	c-0.6-1.1-0.9-2.3,0.1-3.2c0.9-0.7,2.2-0.5,2.9,0.5L9.8,31c0.2,0.1,0.3,0.3,0.5,0.4c0,0,1.2,0.2,1.3-0.9c0-0.9,0-17.7,0-17.7
	c0-2.9,4.4-3,4.4,0v15c0,1.4,2.1,1.4,2.1,0v-3.5c-0.1-1.1,0.7-2.1,1.8-2.2c1.2-0.1,2.3,1,2.2,2.2v6.1c0,1.4,2.1,1.4,2.1,0v-3.7
	c-0.3-2.6,3.6-3.1,3.9-0.4c0,0.1,0,0.3,0,0.4v6.8c0,1.4,2.1,1.4,2.1,0v-5c-0.1-1.1,0.7-2.1,1.8-2.2c1.2-0.2,2.3,1,2.2,2.2l0.1,11.2
	C34.2,41.5,34,41.9,33.2,44z"/> <path class="st0" d="M10.8,31.1"/> </symbol>
<symbol id="i-play" viewBox="0 0 60 60"> <circle cx="30" cy="30" r="30" fill="#DD352E"/> <path d="M43.3291 28.268C44.6624 29.0378 44.6624 30.9623 43.3291 31.7321L24.8354 42.4094C23.5021 43.1792 21.8354 42.2169 21.8354 40.6773L21.8354 19.3227C21.8354 17.7831 23.5021 16.8208 24.8354 17.5906L43.3291 28.268Z" fill="white"/> </symbol>
</svg>